<svg xmlns="http://www.w3.org/2000/svg" xmlns:xlink="http://www.w3.org/1999/xlink" width="450" zoomAndPan="magnify" viewBox="0 0 337.5 149.999998" height="200" preserveAspectRatio="xMidYMid meet" version="1.0"><defs><g/><clipPath id="6f4a569993"><path d="M 4.851562 2.386719 L 332.113281 2.386719 L 332.113281 115.46875 L 4.851562 115.46875 Z M 4.851562 2.386719 " clip-rule="nonzero"/></clipPath></defs><g clip-path="url(#6f4a569993)"><path stroke-linecap="butt" transform="matrix(0.748891, 0, 0, 0.748891, 4.850746, 2.386761)" fill="none" stroke-linejoin="miter" d="M 0.00109008 -0.0000564142 L 437.038238 -0.0000564142 L 437.038238 151.421863 L 0.00109008 151.421863 Z M 0.00109008 -0.0000564142 " stroke="#2e2e2e" stroke-width="2" stroke-opacity="1" stroke-miterlimit="4"/></g><g fill="#2e2e2e" fill-opacity="1"><g transform="translate(27.801184, 79.681539)"><g><path d="M 2.078125 -0.984375 L 2.078125 0 L 12.84375 0 L 12.84375 -0.984375 L 7.953125 -0.984375 L 7.953125 -39.09375 L 21.59375 0 L 22.390625 0 L 36.03125 -39.328125 L 36.03125 -0.984375 L 31.140625 -0.984375 L 31.140625 0 L 46.859375 0 L 46.859375 -0.984375 L 41.96875 -0.984375 L 41.96875 -40.125 L 46.859375 -40.125 L 46.859375 -41.109375 L 35.546875 -41.109375 L 24.65625 -9.671875 L 13.390625 -41.109375 L 2.078125 -41.109375 L 2.078125 -40.125 L 6.96875 -40.125 L 6.96875 -0.984375 Z M 2.078125 -0.984375 "/></g></g></g><g fill="#2e2e2e" fill-opacity="1"><g transform="translate(75.451285, 79.681539)"><g><path d="M 1.34375 -0.984375 L 1.34375 0 L 14.921875 0 L 14.921875 -0.984375 L 7.703125 -0.984375 L 11.5625 -12.78125 L 23.859375 -12.78125 L 27.828125 -0.984375 L 21.53125 -0.984375 L 21.53125 0 L 39.453125 0 L 39.453125 -0.984375 L 34.140625 -0.984375 L 20.734375 -41.65625 L 20 -41.65625 L 6.609375 -0.984375 Z M 17.671875 -31.265625 L 23.546875 -13.765625 L 11.921875 -13.765625 Z M 17.671875 -31.265625 "/></g></g></g><g fill="#2e2e2e" fill-opacity="1"><g transform="translate(114.782488, 79.681539)"><g><path d="M 34.921875 -12.421875 C 34.722656 -12.421875 34.519531 -12.195312 34.3125 -11.75 C 33.582031 -10.070312 32.785156 -8.507812 31.921875 -7.0625 C 31.066406 -5.613281 30.085938 -4.359375 28.984375 -3.296875 C 27.890625 -2.242188 26.671875 -1.421875 25.328125 -0.828125 C 23.984375 -0.234375 22.492188 0.0625 20.859375 0.0625 C 17.148438 0.0625 14.394531 -1.382812 12.59375 -4.28125 C 10.800781 -7.175781 9.90625 -11.414062 9.90625 -17 L 9.90625 -23.859375 C 9.90625 -29.242188 10.820312 -33.390625 12.65625 -36.296875 C 14.5 -39.210938 17.335938 -40.671875 21.171875 -40.671875 C 22.753906 -40.671875 24.195312 -40.414062 25.5 -39.90625 C 26.8125 -39.40625 27.992188 -38.703125 29.046875 -37.796875 C 30.109375 -36.898438 31.023438 -35.820312 31.796875 -34.5625 C 32.578125 -33.300781 33.210938 -31.9375 33.703125 -30.46875 C 33.828125 -30.0625 33.972656 -29.859375 34.140625 -29.859375 C 34.335938 -29.859375 34.4375 -30.097656 34.4375 -30.578125 L 34.4375 -40.5625 C 34.4375 -40.925781 34.394531 -41.164062 34.3125 -41.28125 C 34.226562 -41.40625 34.109375 -41.46875 33.953125 -41.46875 C 33.742188 -41.46875 33.476562 -41.304688 33.15625 -40.984375 L 30.765625 -38.53125 C 29.460938 -39.59375 27.992188 -40.398438 26.359375 -40.953125 C 24.734375 -41.503906 23.003906 -41.78125 21.171875 -41.78125 C 18.472656 -41.78125 15.972656 -41.164062 13.671875 -39.9375 C 11.367188 -38.71875 9.367188 -37.109375 7.671875 -35.109375 C 5.984375 -33.109375 4.671875 -30.832031 3.734375 -28.28125 C 2.796875 -25.738281 2.328125 -23.160156 2.328125 -20.546875 C 2.328125 -17.535156 2.863281 -14.710938 3.9375 -12.078125 C 5.019531 -9.453125 6.4375 -7.160156 8.1875 -5.203125 C 9.945312 -3.242188 11.925781 -1.691406 14.125 -0.546875 C 16.332031 0.585938 18.578125 1.15625 20.859375 1.15625 C 22.773438 1.15625 24.609375 0.78125 26.359375 0.03125 C 28.117188 -0.71875 29.691406 -1.867188 31.078125 -3.421875 L 34.3125 0.125 C 34.519531 0.320312 34.707031 0.421875 34.875 0.421875 C 35.113281 0.421875 35.234375 0.28125 35.234375 0 L 35.234375 -11.8125 C 35.234375 -12.21875 35.128906 -12.421875 34.921875 -12.421875 Z M 34.921875 -12.421875 "/></g></g></g><g fill="#2e2e2e" fill-opacity="1"><g transform="translate(151.17762, 79.681539)"><g><path d="M 1.34375 -0.984375 L 1.34375 0 L 14.921875 0 L 14.921875 -0.984375 L 7.703125 -0.984375 L 11.5625 -12.78125 L 23.859375 -12.78125 L 27.828125 -0.984375 L 21.53125 -0.984375 L 21.53125 0 L 39.453125 0 L 39.453125 -0.984375 L 34.140625 -0.984375 L 20.734375 -41.65625 L 20 -41.65625 L 6.609375 -0.984375 Z M 17.671875 -31.265625 L 23.546875 -13.765625 L 11.921875 -13.765625 Z M 17.671875 -31.265625 "/></g></g></g><g fill="#2e2e2e" fill-opacity="1"><g transform="translate(190.508822, 79.681539)"><g><path d="M 32.296875 -2.625 C 32.171875 -3.03125 32.078125 -3.597656 32.015625 -4.328125 C 31.960938 -5.066406 31.925781 -5.863281 31.90625 -6.71875 C 31.882812 -7.582031 31.863281 -8.460938 31.84375 -9.359375 C 31.820312 -10.253906 31.75 -11.109375 31.625 -11.921875 C 31.382812 -13.554688 30.976562 -14.90625 30.40625 -15.96875 C 29.832031 -17.03125 29.132812 -17.894531 28.3125 -18.5625 C 27.5 -19.238281 26.5625 -19.769531 25.5 -20.15625 C 24.445312 -20.539062 23.304688 -20.898438 22.078125 -21.234375 C 25.265625 -21.796875 27.710938 -22.921875 29.421875 -24.609375 C 31.140625 -26.304688 32 -28.441406 32 -31.015625 C 32 -32.609375 31.660156 -34.035156 30.984375 -35.296875 C 30.304688 -36.554688 29.394531 -37.613281 28.25 -38.46875 C 27.113281 -39.332031 25.757812 -39.988281 24.1875 -40.4375 C 22.625 -40.882812 20.960938 -41.109375 19.203125 -41.109375 L 1.953125 -41.109375 L 1.953125 -40.125 L 7.21875 -40.125 L 7.21875 -0.984375 L 1.953125 -0.984375 L 1.953125 0 L 18.40625 0 L 18.40625 -0.984375 L 13.15625 -0.984375 L 13.15625 -20.984375 L 18.234375 -20.984375 C 18.878906 -20.984375 19.566406 -20.867188 20.296875 -20.640625 C 21.035156 -20.421875 21.722656 -19.992188 22.359375 -19.359375 C 22.992188 -18.722656 23.546875 -17.84375 24.015625 -16.71875 C 24.484375 -15.601562 24.816406 -14.171875 25.015625 -12.421875 C 25.140625 -11.359375 25.210938 -10.273438 25.234375 -9.171875 C 25.253906 -8.078125 25.3125 -7.019531 25.40625 -6 C 25.507812 -4.976562 25.691406 -4.035156 25.953125 -3.171875 C 26.222656 -2.316406 26.644531 -1.585938 27.21875 -0.984375 C 27.75 -0.410156 28.367188 -0.0234375 29.078125 0.171875 C 29.796875 0.378906 30.5625 0.484375 31.375 0.484375 C 32.070312 0.484375 32.765625 0.410156 33.453125 0.265625 C 34.148438 0.128906 34.796875 -0.0351562 35.390625 -0.234375 C 35.984375 -0.441406 36.492188 -0.65625 36.921875 -0.875 C 37.347656 -1.101562 37.660156 -1.320312 37.859375 -1.53125 C 37.984375 -1.65625 38.046875 -1.773438 38.046875 -1.890625 C 38.046875 -2.015625 37.984375 -2.078125 37.859375 -2.078125 C 37.785156 -2.078125 37.664062 -2.035156 37.5 -1.953125 C 36.6875 -1.378906 35.769531 -1.09375 34.75 -1.09375 C 33.476562 -1.09375 32.660156 -1.601562 32.296875 -2.625 Z M 13.15625 -21.953125 L 13.15625 -40.125 L 19.203125 -40.125 C 23.859375 -40.125 26.1875 -37.453125 26.1875 -32.109375 L 26.1875 -29.90625 C 26.1875 -24.601562 23.859375 -21.953125 19.203125 -21.953125 Z M 13.15625 -21.953125 "/></g></g></g><g fill="#2e2e2e" fill-opacity="1"><g transform="translate(227.821473, 79.681539)"><g><path d="M 21.40625 1.15625 C 24.019531 1.15625 26.476562 0.554688 28.78125 -0.640625 C 31.082031 -1.847656 33.085938 -3.445312 34.796875 -5.4375 C 36.515625 -7.4375 37.875 -9.726562 38.875 -12.3125 C 39.875 -14.90625 40.375 -17.59375 40.375 -20.375 C 40.375 -23.144531 39.875 -25.820312 38.875 -28.40625 C 37.875 -31 36.515625 -33.285156 34.796875 -35.265625 C 33.085938 -37.242188 31.082031 -38.820312 28.78125 -40 C 26.476562 -41.1875 24.019531 -41.78125 21.40625 -41.78125 C 18.800781 -41.78125 16.34375 -41.1875 14.03125 -40 C 11.726562 -38.820312 9.71875 -37.242188 8 -35.265625 C 6.289062 -33.285156 4.9375 -31 3.9375 -28.40625 C 2.945312 -25.820312 2.453125 -23.144531 2.453125 -20.375 C 2.453125 -17.59375 2.945312 -14.90625 3.9375 -12.3125 C 4.9375 -9.726562 6.289062 -7.4375 8 -5.4375 C 9.71875 -3.445312 11.726562 -1.847656 14.03125 -0.640625 C 16.34375 0.554688 18.800781 1.15625 21.40625 1.15625 Z M 21.40625 -40.671875 C 23.238281 -40.671875 24.867188 -40.382812 26.296875 -39.8125 C 27.722656 -39.25 28.914062 -38.289062 29.875 -36.9375 C 30.832031 -35.59375 31.566406 -33.820312 32.078125 -31.625 C 32.585938 -29.425781 32.84375 -26.691406 32.84375 -23.421875 L 32.84375 -17.3125 C 32.84375 -11.394531 31.863281 -7.019531 29.90625 -4.1875 C 27.957031 -1.351562 25.125 0.0625 21.40625 0.0625 C 17.695312 0.0625 14.863281 -1.351562 12.90625 -4.1875 C 10.945312 -7.019531 9.96875 -11.394531 9.96875 -17.3125 L 9.96875 -23.421875 C 9.96875 -26.609375 10.222656 -29.289062 10.734375 -31.46875 C 11.242188 -33.65625 11.976562 -35.429688 12.9375 -36.796875 C 13.894531 -38.160156 15.085938 -39.144531 16.515625 -39.75 C 17.941406 -40.363281 19.570312 -40.671875 21.40625 -40.671875 Z M 21.40625 -40.671875 "/></g></g></g><g fill="#2e2e2e" fill-opacity="1"><g transform="translate(268.987729, 79.681539)"><g><path d="M 1.65625 -0.984375 L 1.65625 0 L 13.15625 0 L 13.15625 -0.984375 L 7.890625 -0.984375 L 7.890625 -38.359375 L 31.5625 0.484375 L 33.640625 0.484375 L 33.640625 -40.125 L 38.90625 -40.125 L 38.90625 -41.109375 L 27.40625 -41.109375 L 27.40625 -40.125 L 32.671875 -40.125 L 32.671875 -10.09375 L 13.703125 -41.109375 L 1.65625 -41.109375 L 1.65625 -40.125 L 6.90625 -40.125 L 6.90625 -0.984375 Z M 1.65625 -0.984375 "/></g></g></g><path fill="#ffffff" d="M 102.597656 101.191406 L 234.378906 101.191406 L 234.378906 126 L 102.597656 126 L 102.597656 101.191406 " fill-opacity="1" fill-rule="nonzero"/><g fill="#2e2e2e" fill-opacity="1"><g transform="translate(113.272227, 118.693128)"><g><path d="M 4.34375 0 L 1.015625 0 L 1.015625 -11.40625 L 4.34375 -11.40625 C 6.269531 -11.40625 7.742188 -10.910156 8.765625 -9.921875 C 9.785156 -8.941406 10.296875 -7.535156 10.296875 -5.703125 C 10.296875 -3.867188 9.78125 -2.457031 8.75 -1.46875 C 7.726562 -0.488281 6.257812 0 4.34375 0 Z M 3.171875 -9.484375 L 3.171875 -1.921875 L 4.3125 -1.921875 C 5.0625 -1.921875 5.722656 -2.035156 6.296875 -2.265625 C 6.878906 -2.503906 7.332031 -2.898438 7.65625 -3.453125 C 7.988281 -4.015625 8.15625 -4.765625 8.15625 -5.703125 C 8.15625 -6.585938 7.992188 -7.304688 7.671875 -7.859375 C 7.347656 -8.410156 6.898438 -8.816406 6.328125 -9.078125 C 5.753906 -9.347656 5.085938 -9.484375 4.328125 -9.484375 Z M 3.171875 -9.484375 "/></g></g></g><g fill="#2e2e2e" fill-opacity="1"><g transform="translate(132.582815, 118.693128)"><g><path d="M 3.171875 0 L 1.015625 0 L 1.015625 -11.40625 L 3.171875 -11.40625 Z M 3.171875 0 "/></g></g></g><g fill="#2e2e2e" fill-opacity="1"><g transform="translate(145.199522, 118.693128)"><g><path d="M 2.359375 0 L 0.109375 0 L 4.125 -11.40625 L 6.484375 -11.40625 L 10.515625 0 L 8.25 0 L 7.484375 -2.34375 L 3.125 -2.34375 Z M 5.3125 -9.0625 L 3.734375 -4.234375 L 6.875 -4.234375 Z M 5.3125 -9.0625 "/></g></g></g><g fill="#2e2e2e" fill-opacity="1"><g transform="translate(164.241164, 118.693128)"><g><path d="M 7.765625 -4.953125 L 9.8125 0 L 7.515625 0 L 5.71875 -4.5625 L 3.171875 -4.5625 L 3.171875 0 L 1.015625 0 L 1.015625 -11.40625 L 5.9375 -11.40625 C 6.65625 -11.40625 7.285156 -11.285156 7.828125 -11.046875 C 8.367188 -10.816406 8.789062 -10.453125 9.09375 -9.953125 C 9.40625 -9.460938 9.5625 -8.828125 9.5625 -8.046875 C 9.5625 -7.296875 9.398438 -6.65625 9.078125 -6.125 C 8.753906 -5.601562 8.316406 -5.210938 7.765625 -4.953125 Z M 5.640625 -9.484375 L 3.171875 -9.484375 L 3.171875 -6.4375 L 5.640625 -6.4375 C 6.210938 -6.4375 6.648438 -6.566406 6.953125 -6.828125 C 7.265625 -7.085938 7.421875 -7.46875 7.421875 -7.96875 C 7.421875 -8.457031 7.265625 -8.832031 6.953125 -9.09375 C 6.640625 -9.351562 6.203125 -9.484375 5.640625 -9.484375 Z M 5.640625 -9.484375 "/></g></g></g><g fill="#2e2e2e" fill-opacity="1"><g transform="translate(182.969028, 118.693128)"><g><path d="M 3.171875 0 L 1.015625 0 L 1.015625 -11.40625 L 3.171875 -11.40625 Z M 3.171875 0 "/></g></g></g><g fill="#2e2e2e" fill-opacity="1"><g transform="translate(195.585738, 118.693128)"><g><path d="M 8.625 0 L 1.015625 0 L 1.015625 -11.40625 L 8.625 -11.40625 L 8.625 -9.484375 L 3.171875 -9.484375 L 3.171875 -6.671875 L 8.0625 -6.671875 L 8.0625 -4.75 L 3.171875 -4.75 L 3.171875 -1.921875 L 8.625 -1.921875 Z M 8.625 0 "/></g></g></g><g fill="#2e2e2e" fill-opacity="1"><g transform="translate(213.297572, 118.693128)"><g><path d="M 5.546875 0.203125 C 4.992188 0.203125 4.4375 0.132812 3.875 0 C 3.3125 -0.125 2.789062 -0.335938 2.3125 -0.640625 C 1.832031 -0.941406 1.429688 -1.34375 1.109375 -1.84375 C 0.785156 -2.351562 0.585938 -2.972656 0.515625 -3.703125 L 2.75 -3.703125 C 2.882812 -3.171875 3.09375 -2.75 3.375 -2.4375 C 3.664062 -2.132812 4.003906 -1.921875 4.390625 -1.796875 C 4.773438 -1.679688 5.164062 -1.625 5.5625 -1.625 C 6.144531 -1.625 6.632812 -1.75 7.03125 -2 C 7.4375 -2.25 7.640625 -2.648438 7.640625 -3.203125 C 7.640625 -3.597656 7.507812 -3.90625 7.25 -4.125 C 6.988281 -4.34375 6.648438 -4.515625 6.234375 -4.640625 C 5.828125 -4.765625 5.378906 -4.878906 4.890625 -4.984375 C 4.421875 -5.085938 3.953125 -5.203125 3.484375 -5.328125 C 3.015625 -5.460938 2.582031 -5.644531 2.1875 -5.875 C 1.789062 -6.101562 1.472656 -6.410156 1.234375 -6.796875 C 1.003906 -7.179688 0.890625 -7.671875 0.890625 -8.265625 C 0.890625 -9.003906 1.066406 -9.617188 1.421875 -10.109375 C 1.773438 -10.609375 2.253906 -10.984375 2.859375 -11.234375 C 3.472656 -11.492188 4.164062 -11.625 4.9375 -11.625 C 5.675781 -11.625 6.367188 -11.492188 7.015625 -11.234375 C 7.660156 -10.972656 8.207031 -10.578125 8.65625 -10.046875 C 9.101562 -9.515625 9.390625 -8.835938 9.515625 -8.015625 L 7.3125 -8.015625 C 7.175781 -8.617188 6.882812 -9.0625 6.4375 -9.34375 C 5.988281 -9.632812 5.472656 -9.78125 4.890625 -9.78125 C 4.347656 -9.78125 3.898438 -9.664062 3.546875 -9.4375 C 3.203125 -9.21875 3.03125 -8.890625 3.03125 -8.453125 C 3.03125 -8.097656 3.148438 -7.820312 3.390625 -7.625 C 3.640625 -7.425781 3.960938 -7.269531 4.359375 -7.15625 C 4.765625 -7.039062 5.195312 -6.925781 5.65625 -6.8125 C 6.132812 -6.71875 6.613281 -6.597656 7.09375 -6.453125 C 7.582031 -6.304688 8.03125 -6.109375 8.4375 -5.859375 C 8.851562 -5.617188 9.1875 -5.296875 9.4375 -4.890625 C 9.6875 -4.484375 9.8125 -3.953125 9.8125 -3.296875 C 9.8125 -2.222656 9.4375 -1.367188 8.6875 -0.734375 C 7.9375 -0.109375 6.890625 0.203125 5.546875 0.203125 Z M 5.546875 0.203125 "/></g></g></g></svg>